<svg width="48" height="48" viewBox="0 0 48 48" fill="none" xmlns="http://www.w3.org/2000/svg">
<path d="M42 37C42 39.762 39.762 42 37 42H11C8.239 42 6 39.762 6 37V11C6 8.238 8.239 6 11 6H37C39.762 6 42 8.238 42 11V37Z" fill="white"/>
<path d="M38.7368 18.108L35.3158 20.0842L31.8947 23.4975V35.2105H36.6842C37.818 35.2105 38.7368 34.2455 38.7368 33.0547V18.108Z" fill="#4CAF50"/>
<path d="M10 18.108L12.4727 19.3368L16.8421 23.4975V35.2105H12.0526C10.9189 35.2105 10 34.2455 10 33.0547V18.108Z" fill="#1E88E5"/>
<path d="M32.2697 14.4432L24.2369 20.2716L16.204 14.4432L15.4737 18.5408L16.204 23.2741L24.2369 29.1025L32.2697 23.2741L33 18.5408L32.2697 14.4432Z" fill="#E53935"/>
<path d="M10 15.3124V18.3196L16.8421 24.0997V14.4662L14.7046 12.662C14.1956 12.232 13.5771 12 12.9407 12C11.3164 12 10 13.4828 10 15.3124Z" fill="#C62828"/>
<path d="M38.7368 15.3124V18.3196L31.8947 24.0997V14.4662L34.0322 12.662C34.5413 12.232 35.1598 12 35.7961 12C37.4204 12 38.7368 13.4828 38.7368 15.3124Z" fill="#FBC02D"/>
</svg>
