<svg width="48" height="48" viewBox="0 0 48 48" fill="none" xmlns="http://www.w3.org/2000/svg">
<path d="M42 37C42 39.762 39.762 42 37 42H11C8.239 42 6 39.762 6 37V11C6 8.238 8.239 6 11 6H37C39.762 6 42 8.238 42 11V37Z" fill="url(#paint0_linear_6_22)"/>
<path d="M35.14 31.0419L30.528 27.9909C29.965 27.6499 29.261 27.6439 28.692 27.9739C28.692 27.9739 28.692 27.9739 26.714 29.1269C26.449 29.2809 26.194 29.3099 25.988 29.2719C25.726 29.2239 25.546 29.0809 25.534 29.0709C24.447 28.2739 23.177 27.2189 21.823 25.8659C20.47 24.5129 19.415 23.2429 18.618 22.1549C18.609 22.1419 18.465 21.9619 18.417 21.7009C18.38 21.4949 18.408 21.2409 18.562 20.9749C19.715 18.9969 19.715 18.9969 19.715 18.9969C20.046 18.4279 20.039 17.7229 19.698 17.1609L16.647 12.5489C16.269 11.9779 15.496 11.8269 14.933 12.2169C14.933 12.2169 13.488 13.2059 13.011 13.5419C12.247 14.0799 12.001 14.8979 12 16.0379C11.998 17.6419 13.38 22.6669 19.201 28.4879C25.023 34.3099 30.047 35.6909 31.651 35.6889C32.791 35.6879 33.609 35.4409 34.147 34.6779C34.483 34.2009 35.472 32.7559 35.472 32.7559C35.862 32.1929 35.712 31.4199 35.14 31.0419Z" fill="white"/>
<defs>
<linearGradient id="paint0_linear_6_22" x1="6" y1="6" x2="42" y2="42" gradientUnits="userSpaceOnUse">
<stop stop-color="#8FD819"/>
<stop offset="1" stop-color="#368407"/>
</linearGradient>
</defs>
</svg>
